<svg width="397" height="130" xmlns="http://www.w3.org/2000/svg" xmlns:xlink="http://www.w3.org/1999/xlink" xml:space="preserve" overflow="hidden"><defs><clipPath id="clip0"><rect x="368" y="477" width="397" height="130"/></clipPath></defs><g clip-path="url(#clip0)" transform="translate(-368 -477)"><path d="M459.26 543.685 461.39 546.917 460.46 546.355ZM712.94 528.849C710.79 529.635 707.66 530.466 703.55 531.342 699.44 532.218 696.6 532.861 695.02 533.272 693.45 533.683 691.94 534.487 690.5 535.685 689.07 536.882 688.35 538.553 688.35 540.698 688.35 542.914 689.19 544.8 690.88 546.355 692.57 547.91 694.77 548.687 697.5 548.687 700.4 548.687 703.09 548.053 705.54 546.784 708 545.515 709.8 543.879 710.95 541.878 712.28 539.661 712.94 536.015 712.94 530.94ZM570.21 509.707C566.16 509.707 562.74 511.298 559.96 514.479 557.18 517.66 555.79 522.343 555.79 528.527 555.79 534.353 557.17 538.884 559.94 542.119 562.7 545.354 566.12 546.971 570.21 546.971 572.65 546.971 574.91 546.266 576.99 544.854 579.07 543.442 580.74 541.324 582 538.5 583.25 535.676 583.88 532.262 583.88 528.259 583.88 524.398 583.29 521.083 582.11 518.313 580.92 515.542 579.28 513.416 577.18 511.932 575.08 510.449 572.76 509.707 570.21 509.707ZM548.04 498.769C550.12 498.769 551.82 499.475 553.13 500.887 554.44 502.299 555.09 504.327 555.09 506.973L555.09 508.742C557.86 505.346 560.73 502.853 563.7 501.262 566.68 499.672 570.05 498.876 573.82 498.876 578.34 498.876 582.5 500.038 586.3 502.361 590.11 504.685 593.11 508.081 595.32 512.549 597.52 517.017 598.63 522.307 598.63 528.42 598.63 532.924 597.99 537.061 596.72 540.832 595.44 544.603 593.69 547.767 591.47 550.322 589.24 552.878 586.62 554.844 583.59 556.221 580.55 557.597 577.3 558.285 573.82 558.285 569.62 558.285 566.1 557.445 563.25 555.765 560.39 554.085 557.68 551.618 555.09 548.366L555.09 570.349C555.09 576.783 552.74 580 548.04 580 545.28 580 543.45 579.169 542.56 577.507 541.66 575.845 541.21 573.423 541.21 570.242L541.21 507.08C541.21 504.292 541.82 502.209 543.04 500.833 544.26 499.457 545.93 498.769 548.04 498.769ZM702.02 498.662C708.48 498.662 713.55 499.421 717.25 500.94 720.94 502.46 723.55 504.863 725.08 508.152 726.6 511.441 727.36 515.802 727.36 521.235 727.36 524.666 727.35 527.58 727.34 529.975 727.32 532.37 727.29 535.033 727.26 537.964 727.26 540.716 727.71 543.585 728.63 546.569 729.54 549.554 730 551.475 730 552.333 730 553.835 729.29 555.202 727.87 556.435 726.46 557.668 724.85 558.285 723.06 558.285 721.55 558.285 720.06 557.579 718.59 556.167 717.12 554.755 715.56 552.709 713.91 550.028 710.36 552.78 706.92 554.844 703.61 556.221 700.29 557.597 696.57 558.285 692.44 558.285 688.67 558.285 685.36 557.543 682.51 556.06 679.66 554.576 677.46 552.566 675.92 550.028 674.38 547.49 673.61 544.737 673.61 541.771 673.61 537.767 674.88 534.353 677.43 531.53 679.97 528.706 683.47 526.811 687.92 525.846 688.85 525.631 691.17 525.149 694.86 524.398 698.56 523.648 701.72 522.959 704.36 522.334 707 521.708 709.86 520.949 712.94 520.055 712.76 516.195 711.98 513.362 710.6 511.557 709.22 509.752 706.36 508.849 702.02 508.849 698.29 508.849 695.48 509.367 693.6 510.404 691.71 511.441 690.1 512.996 688.75 515.069 687.41 517.142 686.46 518.509 685.9 519.171 685.35 519.832 684.15 520.163 682.32 520.163 680.67 520.163 679.25 519.635 678.05 518.581 676.84 517.526 676.24 516.177 676.24 514.533 676.24 511.959 677.16 509.457 678.99 507.026 680.82 504.595 683.67 502.594 687.54 501.021 691.42 499.448 696.24 498.662 702.02 498.662ZM471.59 498.662C478.05 498.662 483.13 499.421 486.82 500.94 490.52 502.46 493.13 504.863 494.65 508.152 496.18 511.441 496.94 515.802 496.94 521.235 496.94 524.666 496.93 527.58 496.91 529.975 496.89 532.37 496.87 535.033 496.83 537.964 496.83 540.716 497.29 543.585 498.2 546.569 499.12 549.554 499.58 551.475 499.58 552.333 499.58 553.835 498.87 555.202 497.45 556.435 496.03 557.668 494.43 558.285 492.63 558.285 491.13 558.285 489.64 557.579 488.17 556.167 486.7 554.755 485.14 552.709 483.49 550.028 479.94 552.78 476.5 554.844 473.18 556.221L468.45 557.609 461.39 546.917 463.38 548.104C464.48 548.493 465.71 548.687 467.07 548.687 469.98 548.687 472.66 548.053 475.12 546.784 477.58 545.515 479.38 543.879 480.53 541.878 481.85 539.661 482.52 536.015 482.52 530.94L482.52 528.849C480.37 529.635 477.24 530.466 473.13 531.342 469.02 532.218 466.18 532.861 464.6 533.272 463.02 533.683 461.51 534.487 460.08 535.685 458.64 536.882 457.93 538.553 457.93 540.698L459.26 543.685 449.8 529.343 451.54 527.991C453.29 527.043 455.27 526.329 457.5 525.846 458.43 525.631 460.74 525.149 464.44 524.398 468.13 523.648 471.3 522.959 473.94 522.334 476.57 521.708 479.43 520.949 482.52 520.055 482.34 516.195 481.56 513.362 480.18 511.557 478.8 509.752 475.94 508.849 471.59 508.849 467.86 508.849 465.06 509.367 463.17 510.404 461.29 511.441 459.68 512.996 458.33 515.069 456.99 517.142 456.03 518.509 455.48 519.171 454.92 519.832 453.73 520.163 451.9 520.163 450.25 520.163 448.82 519.635 447.62 518.581 446.42 517.526 445.82 516.177 445.82 514.533 445.82 511.959 446.73 509.457 448.56 507.026 450.39 504.595 453.25 502.594 457.12 501.021 460.99 499.448 465.82 498.662 471.59 498.662ZM419.73 483.75 449.8 529.343 447 531.53C444.46 534.353 443.18 537.767 443.18 541.771 443.18 544.737 443.95 547.49 445.5 550.028 447.04 552.566 449.24 554.576 452.09 556.06 454.94 557.543 458.25 558.285 462.02 558.285 464.08 558.285 466.04 558.113 467.9 557.769L468.45 557.609 469.15 558.674 393 558.674 397.91 544.908 405.05 544.908 405.05 541.604 399.09 541.604 401.45 534.997 412.78 534.997 412.78 531.693 402.63 531.693 409.31 512.972 416.1 512.972 416.1 509.668 410.49 509.668ZM617.35 477C619.68 477 621.5 477.751 622.81 479.252 624.12 480.753 624.78 482.97 624.78 485.901L624.78 507.616C626.64 505.471 628.46 503.773 630.24 502.522 632.01 501.271 633.98 500.333 636.13 499.707 638.28 499.082 640.6 498.769 643.07 498.769 646.8 498.769 650.11 499.555 653 501.128 655.89 502.701 658.16 504.989 659.81 507.991 660.85 509.743 661.55 511.7 661.91 513.862 662.26 516.025 662.44 518.518 662.44 521.342L662.44 549.384C662.44 552.315 661.77 554.532 660.43 556.033 659.08 557.534 657.3 558.285 655.07 558.285 650.23 558.285 647.81 555.318 647.81 549.384L647.81 524.666C647.81 519.984 647.11 516.382 645.71 513.862 644.31 511.342 641.66 510.082 637.75 510.082 635.13 510.082 632.77 510.824 630.67 512.307 628.57 513.791 627 515.819 625.96 518.393 625.17 520.574 624.78 524.452 624.78 530.028L624.78 549.384C624.78 552.28 624.12 554.487 622.81 556.006 621.5 557.525 619.68 558.285 617.35 558.285 612.51 558.285 610.09 555.318 610.09 549.384L610.09 485.901C610.09 482.934 610.72 480.709 612 479.225 613.27 477.742 615.06 477 617.35 477ZM518.74 477C520.97 477 522.76 477.742 524.12 479.225 525.49 480.709 526.17 482.934 526.17 485.901L526.17 549.384C526.17 552.351 525.48 554.576 524.1 556.06 522.71 557.543 520.93 558.285 518.74 558.285 516.59 558.285 514.84 557.516 513.5 555.979 512.15 554.442 511.48 552.244 511.48 549.384L511.48 485.901C511.48 482.97 512.13 480.753 513.44 479.252 514.75 477.751 516.52 477 518.74 477Z" fill="#FFFFFF" fill-rule="evenodd"/><path d="M413 490 368 558 388.65 558 413 490Z" fill="#FFFFFF" fill-rule="evenodd"/><text fill="#FFFFFF" font-family="Poppins,Poppins_MSFontService,sans-serif" font-weight="700" font-size="27" transform="translate(561.43 584)">eat healthy <tspan font-size="23" x="162.708" y="0">:)</tspan></text></g></svg>