<svg width="285" height="122" xmlns="http://www.w3.org/2000/svg" xmlns:xlink="http://www.w3.org/1999/xlink" xml:space="preserve" overflow="hidden"><defs><clipPath id="clip0"><rect x="469" y="290" width="285" height="122"/></clipPath><clipPath id="clip1"><rect x="494" y="290" width="236" height="78"/></clipPath><clipPath id="clip2"><rect x="494" y="290" width="236" height="78"/></clipPath><clipPath id="clip3"><rect x="494" y="290" width="236" height="78"/></clipPath><clipPath id="clip4"><rect x="494" y="290" width="236" height="78"/></clipPath></defs><g clip-path="url(#clip0)" transform="translate(-469 -290)"><g clip-path="url(#clip1)"><g clip-path="url(#clip2)"><g clip-path="url(#clip3)"><g clip-path="url(#clip4)"><path d="M643.877 117.285 645.14 119.202 644.589 118.869ZM794.381 108.483C793.109 108.949 791.248 109.442 788.814 109.962 786.372 110.482 784.689 110.863 783.752 111.107 782.82 111.351 781.924 111.828 781.07 112.539 780.222 113.249 779.794 114.24 779.794 115.513 779.794 116.828 780.292 117.947 781.295 118.869 782.298 119.792 783.603 120.253 785.226 120.253 786.945 120.253 788.539 119.877 789.992 119.124 791.452 118.371 792.52 117.4 793.203 116.213 793.988 114.897 794.381 112.734 794.381 109.723ZM709.703 97.1261C707.3 97.1261 705.271 98.0698 703.621 99.9573 701.972 101.845 701.147 104.623 701.147 108.292 701.147 111.748 701.966 114.437 703.609 116.356 705.247 118.275 707.276 119.234 709.703 119.234 711.15 119.234 712.491 118.817 713.725 117.979 714.959 117.141 715.95 115.884 716.697 114.209 717.439 112.533 717.813 110.508 717.813 108.133 717.813 105.843 717.463 103.876 716.762 102.232 716.057 100.588 715.084 99.3268 713.838 98.4459 712.592 97.5666 711.216 97.1261 709.703 97.1261ZM696.549 90.6371C697.784 90.6371 698.792 91.0555 699.569 91.8933 700.346 92.731 700.732 93.9346 700.732 95.504L700.732 96.5538C702.376 94.5391 704.078 93.06 705.841 92.1154 707.609 91.1725 709.608 90.6999 711.844 90.6999 714.526 90.6999 716.994 91.39 719.249 92.7679 721.509 94.1466 723.289 96.1612 724.6 98.8126 725.905 101.463 726.564 104.601 726.564 108.229 726.564 110.9 726.184 113.355 725.431 115.592 724.672 117.83 723.633 119.707 722.316 121.223 720.993 122.739 719.439 123.906 717.641 124.722 715.838 125.539 713.909 125.947 711.844 125.947 709.352 125.947 707.264 125.449 705.574 124.452 703.876 123.455 702.269 121.992 700.732 120.062L700.732 133.104C700.732 136.922 699.338 138.83 696.549 138.83 694.912 138.83 693.826 138.337 693.298 137.351 692.764 136.365 692.497 134.928 692.497 133.041L692.497 95.5676C692.497 93.9134 692.859 92.6776 693.583 91.8611 694.306 91.0445 695.297 90.6371 696.549 90.6371ZM787.903 90.5735C791.735 90.5735 794.742 91.0233 796.94 91.9247 799.131 92.8268 800.677 94.2526 801.588 96.2036 802.491 98.1546 802.938 100.742 802.938 103.965 802.938 106.001 802.931 107.73 802.931 109.151 802.915 110.572 802.899 112.152 802.876 113.891 802.876 115.524 803.143 117.226 803.692 118.996 804.234 120.767 804.509 121.907 804.509 122.416 804.509 123.307 804.085 124.118 803.245 124.85 802.405 125.581 801.447 125.947 800.387 125.947 799.492 125.947 798.604 125.528 797.733 124.69 796.862 123.853 795.935 122.639 794.962 121.048 792.85 122.681 790.808 123.906 788.845 124.722 786.875 125.539 784.671 125.947 782.221 125.947 779.984 125.947 778.02 125.507 776.33 124.627 774.639 123.747 773.333 122.554 772.42 121.048 771.506 119.542 771.049 117.909 771.049 116.15 771.049 113.774 771.803 111.748 773.316 110.074 774.822 108.398 776.899 107.274 779.539 106.701 780.091 106.574 781.468 106.288 783.657 105.843 785.854 105.397 787.723 104.988 789.293 104.618 790.855 104.246 792.559 103.796 794.381 103.266 794.278 100.976 793.815 99.2946 792.999 98.2237 792.174 97.1528 790.479 96.6173 787.903 96.6173 785.689 96.6173 784.024 96.9243 782.909 97.5399 781.788 98.1546 780.832 99.0771 780.032 100.307 779.236 101.537 778.673 102.348 778.34 102.741 778.015 103.133 777.303 103.329 776.217 103.329 775.238 103.329 774.395 103.016 773.683 102.391 772.966 101.765 772.609 100.965 772.609 99.9895 772.609 98.4624 773.156 96.9777 774.241 95.5355 775.326 94.0932 777.018 92.9061 779.314 91.9726 781.615 91.0398 784.475 90.5735 787.903 90.5735ZM651.192 90.5735C655.025 90.5735 658.038 91.0233 660.228 91.9247 662.423 92.8268 663.971 94.2526 664.874 96.2036 665.781 98.1546 666.232 100.742 666.232 103.965 666.232 106.001 666.226 107.73 666.215 109.151 666.202 110.572 666.19 112.152 666.167 113.891 666.167 115.524 666.44 117.226 666.979 118.996 667.526 120.767 667.798 121.907 667.798 122.416 667.798 123.307 667.377 124.118 666.535 124.85 665.693 125.581 664.743 125.947 663.675 125.947 662.785 125.947 661.901 125.528 661.029 124.69 660.157 123.853 659.231 122.639 658.253 121.048 656.146 122.681 654.105 123.906 652.136 124.722L649.329 125.546 645.14 119.202 646.321 119.906C646.974 120.137 647.704 120.253 648.51 120.253 650.237 120.253 651.827 119.877 653.287 119.124 654.746 118.371 655.814 117.4 656.496 116.213 657.279 114.897 657.677 112.734 657.677 109.723L657.677 108.483C656.401 108.949 654.544 109.442 652.106 109.962 649.667 110.482 647.982 110.863 647.045 111.107 646.108 111.351 645.212 111.828 644.363 112.539 643.509 113.249 643.088 114.24 643.088 115.513L643.877 117.285 638.264 108.776 639.297 107.974C640.335 107.411 641.51 106.988 642.833 106.701 643.385 106.574 644.755 106.288 646.95 105.843 649.14 105.397 651.02 104.988 652.586 104.618 654.146 104.246 655.844 103.796 657.677 103.266 657.57 100.976 657.107 99.2946 656.288 98.2237 655.47 97.1528 653.773 96.6173 651.192 96.6173 648.979 96.6173 647.318 96.9243 646.196 97.5399 645.081 98.1546 644.126 99.0771 643.325 100.307 642.53 101.537 641.961 102.348 641.634 102.741 641.302 103.133 640.596 103.329 639.51 103.329 638.531 103.329 637.682 103.016 636.971 102.391 636.259 101.765 635.903 100.965 635.903 99.9895 635.903 98.4624 636.443 96.9777 637.529 95.5355 638.614 94.0932 640.311 92.9061 642.607 91.9726 644.903 91.0398 647.769 90.5735 651.192 90.5735ZM620.424 81.7259 638.264 108.776 636.603 110.074C635.096 111.748 634.337 113.774 634.337 116.15 634.337 117.909 634.793 119.542 635.713 121.048 636.627 122.554 637.932 123.747 639.623 124.627 641.314 125.507 643.278 125.947 645.514 125.947 646.736 125.947 647.899 125.845 649.003 125.641L649.329 125.546 649.744 126.178 604.565 126.178 607.478 118.01 611.714 118.01 611.714 116.051 608.178 116.051 609.579 112.131 616.3 112.131 616.3 110.17 610.278 110.17 614.242 99.063 618.27 99.063 618.27 97.1033 614.942 97.1033ZM737.67 77.7213C739.053 77.7213 740.132 78.1669 740.91 79.0573 741.687 79.9476 742.079 81.2635 742.079 83.0025L742.079 95.8856C743.182 94.6129 744.262 93.6056 745.318 92.8637 746.368 92.1209 747.537 91.5643 748.813 91.1929 750.088 90.8224 751.464 90.6371 752.93 90.6371 755.143 90.6371 757.107 91.1034 758.822 92.0362 760.536 92.9697 761.883 94.3271 762.862 96.1078 763.479 97.1473 763.894 98.3085 764.108 99.5914 764.315 100.874 764.422 102.353 764.422 104.029L764.422 120.666C764.422 122.406 764.024 123.721 763.229 124.611 762.428 125.501 761.372 125.947 760.049 125.947 757.178 125.947 755.742 124.187 755.742 120.666L755.742 106.001C755.742 103.223 755.327 101.086 754.496 99.5914 753.666 98.0965 752.094 97.3483 749.774 97.3483 748.219 97.3483 746.819 97.7888 745.573 98.6689 744.327 99.549 743.395 100.753 742.778 102.28 742.31 103.574 742.079 105.874 742.079 109.182L742.079 120.666C742.079 122.384 741.687 123.694 740.91 124.595 740.132 125.497 739.053 125.947 737.67 125.947 734.799 125.947 733.363 124.187 733.363 120.666L733.363 83.0025C733.363 81.2423 733.737 79.9217 734.496 79.0416 735.25 78.1616 736.312 77.7213 737.67 77.7213ZM679.166 77.7213C680.489 77.7213 681.551 78.1616 682.357 79.0416 683.171 79.9217 683.574 81.2423 683.574 83.0025L683.574 120.666C683.574 122.427 683.165 123.747 682.346 124.627 681.521 125.507 680.465 125.947 679.166 125.947 677.89 125.947 676.852 125.491 676.057 124.579 675.256 123.667 674.859 122.363 674.859 120.666L674.859 83.0025C674.859 81.2635 675.244 79.9476 676.022 79.0573 676.799 78.1669 677.849 77.7213 679.166 77.7213Z" fill="#D0CECE" fill-rule="evenodd" transform="matrix(1 0 0 1.0103 -95.6086 211.478)"/><path d="M616.431 85.4341 589.732 125.778 601.984 125.778 616.431 85.4341Z" fill="#D0CECE" fill-rule="evenodd" transform="matrix(1 0 0 1.0103 -95.6086 211.478)"/><text fill="#D0CECE" font-family="Poppins,Poppins_MSFontService,sans-serif" font-weight="700" font-size="27" transform="matrix(0.593293 0 0 0.599404 608.885 354)">eat healthy <tspan font-size="23" x="162.708" y="0">:)</tspan></text></g></g></g></g><text fill="#D0CECE" font-family="Poppins SemiBold,Poppins SemiBold_MSFontService,sans-serif" font-style="italic" font-weight="600" font-size="27" transform="matrix(0.785124 0 0 0.787097 493.841 393)">Getting things ready<tspan font-size="27" x="283" y="0">…</tspan></text></g></svg>