<svg width="397" height="130" xmlns="http://www.w3.org/2000/svg" xmlns:xlink="http://www.w3.org/1999/xlink" xml:space="preserve" overflow="hidden"><defs><clipPath id="clip0"><rect x="357" y="433" width="397" height="130"/></clipPath><linearGradient x1="579.29" y1="390.3" x2="521.71" y2="578.7" gradientUnits="userSpaceOnUse" spreadMethod="reflect" id="fill1"><stop offset="0" stop-color="#1591AF"/><stop offset="0.015873" stop-color="#1590AF"/><stop offset="0.031746" stop-color="#1690B0"/><stop offset="0.047619" stop-color="#1790B1"/><stop offset="0.0634921" stop-color="#1890B2"/><stop offset="0.0793651" stop-color="#1990B3"/><stop offset="0.0952381" stop-color="#1990B3"/><stop offset="0.111111" stop-color="#1A8FB4"/><stop offset="0.126984" stop-color="#1B8FB5"/><stop offset="0.142857" stop-color="#1C8FB6"/><stop offset="0.15873" stop-color="#1D8EB6"/><stop offset="0.174603" stop-color="#1D8EB7"/><stop offset="0.190476" stop-color="#1E8EB8"/><stop offset="0.206349" stop-color="#1F8DB8"/><stop offset="0.222222" stop-color="#1F8DB9"/><stop offset="0.238095" stop-color="#208CBA"/><stop offset="0.253968" stop-color="#218CBA"/><stop offset="0.269841" stop-color="#218BBB"/><stop offset="0.285714" stop-color="#228ABC"/><stop offset="0.301587" stop-color="#238ABC"/><stop offset="0.31746" stop-color="#2389BD"/><stop offset="0.333333" stop-color="#2488BD"/><stop offset="0.349206" stop-color="#2588BE"/><stop offset="0.365079" stop-color="#2587BF"/><stop offset="0.380952" stop-color="#2686BF"/><stop offset="0.396825" stop-color="#2685C0"/><stop offset="0.412698" stop-color="#2784C0"/><stop offset="0.428571" stop-color="#2783C1"/><stop offset="0.444444" stop-color="#2883C1"/><stop offset="0.460317" stop-color="#2882C2"/><stop offset="0.47619" stop-color="#2981C2"/><stop offset="0.492063" stop-color="#2980C3"/><stop offset="0.507937" stop-color="#2A7FC3"/><stop offset="0.52381" stop-color="#2A7DC4"/><stop offset="0.539683" stop-color="#2B7CC4"/><stop offset="0.555556" stop-color="#2B7BC4"/><stop offset="0.571429" stop-color="#2C7AC5"/><stop offset="0.587302" stop-color="#2C79C5"/><stop offset="0.603175" stop-color="#2C78C6"/><stop offset="0.619048" stop-color="#2D76C6"/><stop offset="0.634921" stop-color="#2D75C6"/><stop offset="0.650794" stop-color="#2D74C7"/><stop offset="0.666667" stop-color="#2E73C7"/><stop offset="0.68254" stop-color="#2E71C7"/><stop offset="0.698413" stop-color="#2E70C8"/><stop offset="0.714286" stop-color="#2F6EC8"/><stop offset="0.730159" stop-color="#2F6DC8"/><stop offset="0.746032" stop-color="#2F6CC8"/><stop offset="0.761905" stop-color="#306AC9"/><stop offset="0.777778" stop-color="#3069C9"/><stop offset="0.793651" stop-color="#3067C9"/><stop offset="0.809524" stop-color="#3065C9"/><stop offset="0.825397" stop-color="#3064C9"/><stop offset="0.84127" stop-color="#3162CA"/><stop offset="0.857143" stop-color="#3161CA"/><stop offset="0.873016" stop-color="#315FCA"/><stop offset="0.888889" stop-color="#315DCA"/><stop offset="0.904762" stop-color="#315BCA"/><stop offset="0.920635" stop-color="#315ACA"/><stop offset="0.936508" stop-color="#3158CA"/><stop offset="0.952381" stop-color="#3156CA"/><stop offset="0.968254" stop-color="#3154CA"/><stop offset="0.984127" stop-color="#3152CA"/><stop offset="1" stop-color="#3251CB"/></linearGradient></defs><g clip-path="url(#clip0)" transform="translate(-357 -433)"><path d="M448.26 499.685 450.39 502.917 449.46 502.355ZM701.94 484.849C699.79 485.635 696.66 486.466 692.55 487.342 688.44 488.218 685.6 488.861 684.02 489.272 682.45 489.683 680.94 490.487 679.5 491.685 678.07 492.882 677.35 494.553 677.35 496.698 677.35 498.914 678.19 500.8 679.88 502.355 681.57 503.91 683.77 504.687 686.5 504.687 689.4 504.687 692.09 504.053 694.54 502.784 697 501.515 698.8 499.879 699.95 497.878 701.28 495.661 701.94 492.015 701.94 486.94ZM559.21 465.707C555.16 465.707 551.74 467.298 548.96 470.479 546.18 473.66 544.79 478.343 544.79 484.527 544.79 490.353 546.17 494.884 548.94 498.119 551.7 501.354 555.12 502.971 559.21 502.971 561.65 502.971 563.91 502.266 565.99 500.854 568.07 499.442 569.74 497.324 571 494.5 572.25 491.676 572.88 488.262 572.88 484.259 572.88 480.398 572.29 477.083 571.11 474.313 569.92 471.542 568.28 469.416 566.18 467.932 564.08 466.449 561.76 465.707 559.21 465.707ZM537.04 454.769C539.12 454.769 540.82 455.475 542.13 456.887 543.44 458.299 544.09 460.327 544.09 462.973L544.09 464.742C546.86 461.346 549.73 458.853 552.7 457.262 555.68 455.672 559.05 454.876 562.82 454.876 567.34 454.876 571.5 456.038 575.3 458.361 579.11 460.685 582.11 464.081 584.32 468.549 586.52 473.017 587.63 478.307 587.63 484.42 587.63 488.924 586.99 493.061 585.72 496.832 584.44 500.603 582.69 503.767 580.47 506.322 578.24 508.878 575.62 510.844 572.59 512.221 569.55 513.597 566.3 514.285 562.82 514.285 558.62 514.285 555.1 513.445 552.25 511.765 549.39 510.085 546.68 507.618 544.09 504.366L544.09 526.349C544.09 532.783 541.74 536 537.04 536 534.28 536 532.45 535.169 531.56 533.507 530.66 531.845 530.21 529.423 530.21 526.242L530.21 463.08C530.21 460.292 530.82 458.209 532.04 456.833 533.26 455.457 534.93 454.769 537.04 454.769ZM691.02 454.662C697.48 454.662 702.55 455.421 706.25 456.94 709.94 458.46 712.55 460.863 714.08 464.152 715.6 467.441 716.36 471.802 716.36 477.235 716.36 480.666 716.35 483.58 716.34 485.975 716.32 488.37 716.29 491.033 716.26 493.964 716.26 496.716 716.71 499.585 717.63 502.569 718.54 505.554 719 507.475 719 508.333 719 509.835 718.29 511.202 716.87 512.435 715.46 513.668 713.85 514.285 712.06 514.285 710.55 514.285 709.06 513.579 707.59 512.167 706.12 510.755 704.56 508.709 702.91 506.028 699.36 508.78 695.92 510.844 692.61 512.221 689.29 513.597 685.57 514.285 681.44 514.285 677.67 514.285 674.36 513.543 671.51 512.06 668.66 510.576 666.46 508.566 664.92 506.028 663.38 503.49 662.61 500.737 662.61 497.771 662.61 493.767 663.88 490.353 666.43 487.53 668.97 484.706 672.47 482.811 676.92 481.846 677.85 481.631 680.17 481.149 683.86 480.398 687.56 479.648 690.72 478.959 693.36 478.334 696 477.708 698.86 476.949 701.94 476.055 701.76 472.195 700.98 469.362 699.6 467.557 698.22 465.752 695.36 464.849 691.02 464.849 687.29 464.849 684.48 465.367 682.6 466.404 680.71 467.441 679.1 468.996 677.75 471.069 676.41 473.142 675.46 474.509 674.9 475.171 674.35 475.832 673.15 476.163 671.32 476.163 669.67 476.163 668.25 475.635 667.05 474.581 665.84 473.526 665.24 472.177 665.24 470.533 665.24 467.959 666.16 465.457 667.99 463.026 669.82 460.595 672.67 458.594 676.54 457.021 680.42 455.448 685.24 454.662 691.02 454.662ZM460.59 454.662C467.05 454.662 472.13 455.421 475.82 456.94 479.52 458.46 482.13 460.863 483.65 464.152 485.18 467.441 485.94 471.802 485.94 477.235 485.94 480.666 485.93 483.58 485.91 485.975 485.89 488.37 485.87 491.033 485.83 493.964 485.83 496.716 486.29 499.585 487.2 502.569 488.12 505.554 488.58 507.475 488.58 508.333 488.58 509.835 487.87 511.202 486.45 512.435 485.03 513.668 483.43 514.285 481.63 514.285 480.13 514.285 478.64 513.579 477.17 512.167 475.7 510.755 474.14 508.709 472.49 506.028 468.94 508.78 465.5 510.844 462.18 512.221L457.45 513.609 450.39 502.917 452.38 504.104C453.48 504.493 454.71 504.687 456.07 504.687 458.98 504.687 461.66 504.053 464.12 502.784 466.58 501.515 468.38 499.879 469.53 497.878 470.85 495.661 471.52 492.015 471.52 486.94L471.52 484.849C469.37 485.635 466.24 486.466 462.13 487.342 458.02 488.218 455.18 488.861 453.6 489.272 452.02 489.683 450.51 490.487 449.08 491.685 447.64 492.882 446.93 494.553 446.93 496.698L448.26 499.685 438.8 485.343 440.54 483.991C442.29 483.043 444.27 482.329 446.5 481.846 447.43 481.631 449.74 481.149 453.44 480.398 457.13 479.648 460.3 478.959 462.94 478.334 465.57 477.708 468.43 476.949 471.52 476.055 471.34 472.195 470.56 469.362 469.18 467.557 467.8 465.752 464.94 464.849 460.59 464.849 456.86 464.849 454.06 465.367 452.17 466.404 450.29 467.441 448.68 468.996 447.33 471.069 445.99 473.142 445.03 474.509 444.48 475.171 443.92 475.832 442.73 476.163 440.9 476.163 439.25 476.163 437.82 475.635 436.62 474.581 435.42 473.526 434.82 472.177 434.82 470.533 434.82 467.959 435.73 465.457 437.56 463.026 439.39 460.595 442.25 458.594 446.12 457.021 449.99 455.448 454.82 454.662 460.59 454.662ZM408.73 439.75 438.8 485.343 436 487.53C433.46 490.353 432.18 493.767 432.18 497.771 432.18 500.737 432.95 503.49 434.5 506.028 436.04 508.566 438.24 510.576 441.09 512.06 443.94 513.543 447.25 514.285 451.02 514.285 453.08 514.285 455.04 514.113 456.9 513.769L457.45 513.609 458.15 514.674 382 514.674 386.91 500.908 394.05 500.908 394.05 497.604 388.09 497.604 390.45 490.997 401.78 490.997 401.78 487.693 391.63 487.693 398.31 468.972 405.1 468.972 405.1 465.668 399.49 465.668ZM606.35 433C608.68 433 610.5 433.751 611.81 435.252 613.12 436.753 613.78 438.97 613.78 441.901L613.78 463.616C615.64 461.471 617.46 459.773 619.24 458.522 621.01 457.271 622.98 456.333 625.13 455.707 627.28 455.082 629.6 454.769 632.07 454.769 635.8 454.769 639.11 455.555 642 457.128 644.89 458.701 647.16 460.989 648.81 463.991 649.85 465.743 650.55 467.7 650.91 469.862 651.26 472.025 651.44 474.518 651.44 477.342L651.44 505.384C651.44 508.315 650.77 510.532 649.43 512.033 648.08 513.534 646.3 514.285 644.07 514.285 639.23 514.285 636.81 511.318 636.81 505.384L636.81 480.666C636.81 475.984 636.11 472.382 634.71 469.862 633.31 467.342 630.66 466.082 626.75 466.082 624.13 466.082 621.77 466.824 619.67 468.307 617.57 469.791 616 471.819 614.96 474.393 614.17 476.574 613.78 480.452 613.78 486.028L613.78 505.384C613.78 508.28 613.12 510.487 611.81 512.006 610.5 513.525 608.68 514.285 606.35 514.285 601.51 514.285 599.09 511.318 599.09 505.384L599.09 441.901C599.09 438.934 599.72 436.709 601 435.225 602.27 433.742 604.06 433 606.35 433ZM507.74 433C509.97 433 511.76 433.742 513.12 435.225 514.49 436.709 515.17 438.934 515.17 441.901L515.17 505.384C515.17 508.351 514.48 510.576 513.1 512.06 511.71 513.543 509.93 514.285 507.74 514.285 505.59 514.285 503.84 513.516 502.5 511.979 501.15 510.442 500.48 508.244 500.48 505.384L500.48 441.901C500.48 438.97 501.13 436.753 502.44 435.252 503.75 433.751 505.52 433 507.74 433Z" fill="url(#fill1)" fill-rule="evenodd"/><path d="M402 446 357 514 377.65 514 402 446Z" fill="#2A52AC" fill-rule="evenodd"/><text fill="#2E75B6" font-family="Poppins,Poppins_MSFontService,sans-serif" font-weight="700" font-size="27" transform="translate(550.43 540)">eat healthy <tspan font-size="23" x="162.708" y="0">:)</tspan></text></g></svg>